<?xml version="1.0" encoding="utf-8"?>
<!-- Generator: Adobe Illustrator 24.3.0, SVG Export Plug-In . SVG Version: 6.00 Build 0)  -->
<svg version="1.1" id="圖層_1" xmlns="http://www.w3.org/2000/svg" xmlns:xlink="http://www.w3.org/1999/xlink" x="0px" y="0px"
	 viewBox="0 0 20 20" style="enable-background:new 0 0 20 20;" xml:space="preserve">
<style type="text/css">
	.st0{fill:#00005B;}
	.st1{fill:#9999FF;}
</style>
<g>
	<g>
		<path class="st0" d="M14.4,19.7H5.9c-3,0-5.4-2.4-5.4-5.4V5.7c0-3,2.4-5.4,5.4-5.4h8.5c3,0,5.4,2.4,5.4,5.4v8.5
			C19.8,17.3,17.4,19.7,14.4,19.7z"/>
	</g>
	<g>
		<path class="st1" d="M8.3,11.6H5.2l-0.8,2.5H3l2.9-8.8h1.6l2.9,8.8H9L8.3,11.6z M7.9,10.5L7.6,9.3C7.3,8.3,7,7.3,6.7,6.3h0
			c-0.3,1-0.5,2-0.8,2.9l-0.4,1.2H7.9z"/>
		<path class="st1" d="M11,10.8c0-2.1,1.5-3.5,3-3.5c1.8,0,2.7,1.3,2.7,3.1c0,0.3,0,0.5-0.1,0.7h-4.3c0.1,1.3,0.9,2,2,2
			c0.6,0,1.1-0.2,1.6-0.5l0.5,0.9c-0.6,0.4-1.4,0.7-2.2,0.7C12.5,14.2,11,13,11,10.8z M15.6,10.2c0-1.1-0.5-1.8-1.5-1.8
			c-0.8,0-1.6,0.6-1.7,1.8H15.6z"/>
	</g>
</g>
</svg>
