<?xml version="1.0" encoding="utf-8"?>
<!-- Generator: Adobe Illustrator 24.3.0, SVG Export Plug-In . SVG Version: 6.00 Build 0)  -->
<svg version="1.1" id="圖層_1" xmlns="http://www.w3.org/2000/svg" xmlns:xlink="http://www.w3.org/1999/xlink" x="0px" y="0px"
	 viewBox="0 0 20 20" style="enable-background:new 0 0 20 20;" xml:space="preserve">
<style type="text/css">
	.st0{fill:#330000;}
	.st1{fill:#FF9A00;}
</style>
<g>
	<g>
		<path class="st0" d="M14.3,19.7H5.7c-3,0-5.4-2.4-5.4-5.4V5.7c0-3,2.4-5.4,5.4-5.4h8.5c3,0,5.4,2.4,5.4,5.4v8.5
			C19.7,17.3,17.3,19.7,14.3,19.7z"/>
	</g>
	<g>
		<path class="st1" d="M9.4,11.6H6.3l-0.8,2.5H4.1L7,5.3h1.6l2.9,8.8h-1.5L9.4,11.6z M9,10.5L8.7,9.3c-0.3-1-0.6-1.9-0.8-2.9h0
			c-0.3,1-0.5,2-0.8,2.9l-0.4,1.2H9z"/>
		<path class="st1" d="M12.4,5.4c0-0.5,0.4-0.8,0.9-0.8c0.5,0,0.9,0.3,0.9,0.8c0,0.5-0.4,0.8-0.9,0.8C12.8,6.3,12.4,5.9,12.4,5.4z
			 M12.6,7.5H14v6.6h-1.4V7.5z"/>
	</g>
</g>
</svg>
