<?xml version="1.0" encoding="utf-8"?>
<!-- Generator: Adobe Illustrator 24.3.0, SVG Export Plug-In . SVG Version: 6.00 Build 0)  -->
<svg version="1.1" id="圖層_1" xmlns="http://www.w3.org/2000/svg" xmlns:xlink="http://www.w3.org/1999/xlink" x="0px" y="0px"
	 viewBox="0 0 20 20" style="enable-background:new 0 0 20 20;" xml:space="preserve">
<style type="text/css">
	.st0{fill:#00005B;}
	.st1{fill:#9999FF;}
</style>
<g>
	<g>
		<path class="st0" d="M14.3,19.7H5.7c-3,0-5.4-2.4-5.4-5.4V5.8c0-3,2.4-5.4,5.4-5.4h8.5c3,0,5.4,2.4,5.4,5.4v8.5
			C19.7,17.3,17.3,19.7,14.3,19.7z"/>
	</g>
	<g>
		<path class="st1" d="M4.8,5.3h2.7c2,0,3.4,0.7,3.4,2.7c0,1.9-1.4,2.8-3.3,2.8H6.2v3.3H4.8V5.3z M7.4,9.6c1.4,0,2.1-0.5,2.1-1.7
			c0-1.2-0.7-1.5-2.1-1.5H6.2v3.3H7.4z"/>
		<path class="st1" d="M12.5,7.5h1.1l0.1,1.2h0c0.5-0.9,1.2-1.4,1.9-1.4c0.3,0,0.5,0,0.7,0.1l-0.3,1.2c-0.2-0.1-0.4-0.1-0.7-0.1
			c-0.5,0-1.2,0.4-1.6,1.4v4.1h-1.4V7.5z"/>
	</g>
</g>
</svg>
