<?xml version="1.0" encoding="utf-8"?>
<!-- Generator: Adobe Illustrator 24.3.0, SVG Export Plug-In . SVG Version: 6.00 Build 0)  -->
<svg version="1.1" id="圖層_1" xmlns="http://www.w3.org/2000/svg" xmlns:xlink="http://www.w3.org/1999/xlink" x="0px" y="0px"
	 viewBox="0 0 20 20" style="enable-background:new 0 0 20 20;" xml:space="preserve">
<style type="text/css">
	.st0{fill:#001E36;}
	.st1{fill:#31A8FF;}
</style>
<g>
	<g>
		<path class="st0" d="M14.3,19.7H5.7c-3,0-5.4-2.4-5.4-5.4V5.8c0-3,2.4-5.4,5.4-5.4h8.5c3,0,5.4,2.4,5.4,5.4v8.5
			C19.7,17.3,17.3,19.7,14.3,19.7z"/>
	</g>
	<g>
		<path class="st1" d="M4.5,5.3h2.7c2,0,3.4,0.7,3.4,2.7c0,1.9-1.4,2.8-3.3,2.8H5.9v3.3H4.5V5.3z M7.1,9.6c1.4,0,2.1-0.5,2.1-1.7
			c0-1.2-0.7-1.5-2.1-1.5H5.9v3.3H7.1z"/>
		<path class="st1" d="M11.3,13.3l0.6-0.9c0.6,0.5,1.2,0.8,1.9,0.8c0.8,0,1.2-0.4,1.2-0.9c0-0.6-0.7-0.9-1.5-1.1
			c-0.9-0.3-1.9-0.8-1.9-1.9c0-1.1,0.9-1.9,2.3-1.9c0.9,0,1.6,0.4,2.1,0.8L15.5,9C15,8.6,14.5,8.4,14,8.4c-0.7,0-1.1,0.4-1.1,0.8
			c0,0.6,0.7,0.8,1.4,1c0.9,0.3,1.9,0.8,1.9,2c0,1.1-0.9,2-2.5,2C12.9,14.3,11.9,13.9,11.3,13.3z"/>
	</g>
</g>
</svg>
