<?xml version="1.0" encoding="utf-8"?>
<!-- Generator: Adobe Illustrator 24.3.0, SVG Export Plug-In . SVG Version: 6.00 Build 0)  -->
<svg version="1.1" id="圖層_1" xmlns="http://www.w3.org/2000/svg" xmlns:xlink="http://www.w3.org/1999/xlink" x="0px" y="0px"
	 viewBox="0 0 20 20" style="enable-background:new 0 0 20 20;" xml:space="preserve">
<style type="text/css">
	.st0{fill:#470137;}
	.st1{fill:#FF61F6;}
</style>
<g>
	<g>
		<path class="st0" d="M14.3,19.7H5.7c-3,0-5.4-2.4-5.4-5.4V5.7c0-3,2.4-5.4,5.4-5.4h8.5c3,0,5.4,2.4,5.4,5.4v8.5
			C19.7,17.3,17.3,19.7,14.3,19.7z"/>
	</g>
	<g>
		<path class="st1" d="M5.4,9.5L3.1,5.3h1.5l1.1,2.1c0.2,0.4,0.4,0.8,0.7,1.3h0.1C6.6,8.1,6.8,7.7,7,7.3l1-2.1h1.5L7.1,9.6l2.5,4.5
			H8.1L7,11.9c-0.2-0.4-0.5-0.9-0.7-1.4h0c-0.3,0.5-0.5,1-0.7,1.4l-1.1,2.2H2.9L5.4,9.5z"/>
		<path class="st1" d="M10.3,10.8c0-2.1,1.4-3.5,2.8-3.5c0.8,0,1.2,0.3,1.8,0.7L14.9,7V4.5h1.4v9.6h-1.1L15,13.3h0
			c-0.5,0.5-1.2,0.9-1.9,0.9C11.4,14.2,10.3,13,10.3,10.8z M14.9,12.3V9.1c-0.5-0.4-1-0.6-1.5-0.6c-0.9,0-1.7,0.9-1.7,2.3
			c0,1.5,0.6,2.3,1.6,2.3C13.9,13.1,14.4,12.8,14.9,12.3z"/>
	</g>
</g>
</svg>
